<mxfile host="app.diagrams.net" modified="2023-12-05T09:06:14.771Z" agent="Mozilla/5.0 (Windows NT 10.0; Win64; x64) AppleWebKit/537.36 (KHTML, like Gecko) Chrome/119.0.0.0 Safari/537.36" etag="wCf76auCio5DSlBnPNBB" version="22.1.5" type="github">
  <diagram name="Page-1" id="fiJyO1p7G9yQYM9rja3u">
    <mxGraphModel dx="1361" dy="859" grid="1" gridSize="10" guides="1" tooltips="1" connect="1" arrows="1" fold="1" page="1" pageScale="1" pageWidth="827" pageHeight="1169" math="0" shadow="0">
      <root>
        <mxCell id="0" />
        <mxCell id="1" parent="0" />
        <mxCell id="7_TXjHH_damtaoHlrQ2M-1" value="Front&lt;br&gt;" style="rounded=0;whiteSpace=wrap;html=1;" vertex="1" parent="1">
          <mxGeometry x="120" y="140" width="150" height="90" as="geometry" />
        </mxCell>
        <mxCell id="7_TXjHH_damtaoHlrQ2M-2" value="Backend&lt;br&gt;PersonWebApi" style="rounded=0;whiteSpace=wrap;html=1;" vertex="1" parent="1">
          <mxGeometry x="100" y="410" width="190" height="90" as="geometry" />
        </mxCell>
        <mxCell id="7_TXjHH_damtaoHlrQ2M-3" value="External&lt;br&gt;AddressWebApi&lt;br&gt;" style="rounded=0;whiteSpace=wrap;html=1;" vertex="1" parent="1">
          <mxGeometry x="90" y="650" width="190" height="90" as="geometry" />
        </mxCell>
        <mxCell id="7_TXjHH_damtaoHlrQ2M-4" value="SQLServer&lt;br&gt;PersonContext" style="shape=cylinder3;whiteSpace=wrap;html=1;boundedLbl=1;backgroundOutline=1;size=15;" vertex="1" parent="1">
          <mxGeometry x="400" y="415" width="110" height="80" as="geometry" />
        </mxCell>
        <mxCell id="7_TXjHH_damtaoHlrQ2M-6" value="" style="endArrow=classic;html=1;rounded=0;exitX=1;exitY=0.5;exitDx=0;exitDy=0;entryX=0;entryY=0.5;entryDx=0;entryDy=0;entryPerimeter=0;" edge="1" parent="1" source="7_TXjHH_damtaoHlrQ2M-2" target="7_TXjHH_damtaoHlrQ2M-4">
          <mxGeometry width="50" height="50" relative="1" as="geometry">
            <mxPoint x="390" y="470" as="sourcePoint" />
            <mxPoint x="440" y="420" as="targetPoint" />
          </mxGeometry>
        </mxCell>
        <mxCell id="7_TXjHH_damtaoHlrQ2M-7" value="" style="endArrow=classic;html=1;rounded=0;exitX=0.468;exitY=1.033;exitDx=0;exitDy=0;exitPerimeter=0;" edge="1" parent="1" source="7_TXjHH_damtaoHlrQ2M-2" target="7_TXjHH_damtaoHlrQ2M-3">
          <mxGeometry width="50" height="50" relative="1" as="geometry">
            <mxPoint x="390" y="470" as="sourcePoint" />
            <mxPoint x="440" y="420" as="targetPoint" />
          </mxGeometry>
        </mxCell>
        <mxCell id="7_TXjHH_damtaoHlrQ2M-8" value="" style="endArrow=classic;html=1;rounded=0;exitX=0.5;exitY=1;exitDx=0;exitDy=0;" edge="1" parent="1" source="7_TXjHH_damtaoHlrQ2M-1" target="7_TXjHH_damtaoHlrQ2M-2">
          <mxGeometry width="50" height="50" relative="1" as="geometry">
            <mxPoint x="390" y="470" as="sourcePoint" />
            <mxPoint x="440" y="420" as="targetPoint" />
          </mxGeometry>
        </mxCell>
      </root>
    </mxGraphModel>
  </diagram>
</mxfile>
